<svg xmlns="http://www.w3.org/2000/svg" viewBox="0 0 128 128"><defs><style>.cls-1{isolation:isolate;}.cls-2{mix-blend-mode:multiply;}.cls-3{fill:#d4dfea;}.cls-4{fill:#093357;}.cls-5{fill:#7569b0;}.cls-6{fill:#e05951;}.cls-7{fill:#e2bc00;}.cls-8{fill:#489de3;}.cls-9{fill:#52ae49;}</style></defs><title>game-controller</title><g class="cls-1"><g id="icons" class="cls-2"><path class="cls-3" d="M92,56H36A24,24,0,1,0,56.78,92H71.22A24,24,0,1,0,92,56Z"/><path class="cls-4" d="M57,84a2,2,0,0,1-1.41-3.41l4-4a2,2,0,0,1,2.83,2.83l-4,4A2,2,0,0,1,57,84Z"/><path class="cls-4" d="M67,84a2,2,0,0,1-1.41-3.41l4-4a2,2,0,0,1,2.83,2.83l-4,4A2,2,0,0,1,67,84Z"/><rect class="cls-5" x="32" y="69" width="8" height="20" rx="2" ry="2"/><rect class="cls-5" x="32" y="69" width="8" height="20" rx="2" ry="2" transform="translate(115 43) rotate(90)"/><circle class="cls-6" cx="100" cy="79" r="4"/><circle class="cls-7" cx="92" cy="87" r="4"/><circle class="cls-8" cx="92" cy="71" r="4"/><circle class="cls-9" cx="84" cy="79" r="4"/><path class="cls-4" d="M79.86,25.26a2,2,0,0,0-3.71,1.49c3.14,7.84-.18,9.45-5.66,12.1C65.24,41.39,58.25,44.78,61,56h4.14c-2.58-8.84,1.74-10.95,7.11-13.55S84.38,36.56,79.86,25.26Z"/></g></g></svg>